<svg xmlns="http://www.w3.org/2000/svg" width="30" height="30" viewBox="0 0 30 30">
  <path id="in-icon" d="M318.458,5994H303.518a7.537,7.537,0,0,0-7.518,7.524V6016.5a7.532,7.532,0,0,0,7.518,7.5h14.964a7.537,7.537,0,0,0,7.518-7.524v-14.952A7.573,7.573,0,0,0,318.458,5994Zm-12.466,24.286H301.71V6005.9h4.282ZM303.827,6004a2.19,2.19,0,1,1,2.189-2.19A2.215,2.215,0,0,1,303.827,6004Zm16.463,14.286H316.7v-6c0-1.452-.19-3.31-2.165-3.31-2.022,0-2.355,1.571-2.355,3.214v6.1h-3.569V6005.9h3.331v1.667h.1c.523-.952,1.737-1.69,3.64-1.69,3.926,0,4.615,2.262,4.615,5.619v6.786Z" transform="translate(-296 -5994)" fill="#fff" opacity="0.502"/>
</svg>
