<svg xmlns="http://www.w3.org/2000/svg" width="30" height="30" viewBox="0 0 30 30">
  <path id="TW-icon" d="M278.458,5994H263.518a7.537,7.537,0,0,0-7.518,7.524V6016.5a7.532,7.532,0,0,0,7.518,7.5h14.964a7.537,7.537,0,0,0,7.518-7.524v-14.952A7.572,7.572,0,0,0,278.458,5994Zm-.024,11.238v.5a10.757,10.757,0,0,1-10.92,10.762,10.947,10.947,0,0,1-5.876-1.69c.309.024.595.047.9.047a7.658,7.658,0,0,0,4.758-1.619,3.833,3.833,0,0,1-3.592-2.619,3.648,3.648,0,0,0,.714.071,3.543,3.543,0,0,0,1.023-.143,3.8,3.8,0,0,1-3.021-3.714v-.048a3.68,3.68,0,0,0,1.713.477,3.736,3.736,0,0,1-1.19-5.048,10.987,10.987,0,0,0,7.9,3.952,3.5,3.5,0,0,1-.1-.857,3.8,3.8,0,0,1,3.83-3.786,3.9,3.9,0,0,1,2.807,1.19,7.131,7.131,0,0,0,2.427-.929,3.876,3.876,0,0,1-1.689,2.1,7.58,7.58,0,0,0,2.213-.6A7.811,7.811,0,0,1,278.435,6005.238Z" transform="translate(-256 -5994)" fill="#fff" opacity="0.502"/>
</svg>
