<svg id="Component_4_1" data-name="Component 4 – 1" xmlns="http://www.w3.org/2000/svg" width="60" height="60" viewBox="0 0 60 60">
  <g id="Эллипс_1" data-name="Эллипс 1" fill="none" stroke="#fff" stroke-linecap="round" stroke-width="3" stroke-dasharray="0 6">
    <circle cx="30" cy="30" r="30" stroke="none"/>
    <circle cx="30" cy="30" r="28.5" fill="none"/>
  </g>
  <path id="Shape_1" data-name="Shape 1" d="M1248.213,2663.721a34.335,34.335,0,0,0-3.54-1.66,7.876,7.876,0,0,1-1.943-1.128,1.778,1.778,0,0,1,.419-3.117,3.319,3.319,0,0,1,1.19-.254,8.76,8.76,0,0,1,4.472.917c.705.353.939.242,1.178-.521.251-.805.46-1.623.694-2.435a.858.858,0,0,0-.532-1.134,11.079,11.079,0,0,0-2.822-.874c-1.28-.2-1.28-.21-1.286-1.542-.006-1.877-.006-1.877-1.824-1.877-.263,0-.526-.006-.789,0-.849.025-.993.18-1.016,1.066-.012.4,0,.793-.006,1.2-.006,1.177-.012,1.158-1.1,1.567a6.247,6.247,0,0,0-4.431,5.824c-.156,2.634,1.172,4.412,3.259,5.707a35.393,35.393,0,0,0,4.072,1.9,6,6,0,0,1,1.483.9,2.14,2.14,0,0,1-.484,3.693,4.719,4.719,0,0,1-2.613.353,11.358,11.358,0,0,1-3.982-1.233c-.735-.4-.951-.291-1.2.533-.215.712-.406,1.431-.6,2.15-.257.967-.161,1.2.729,1.648a12.372,12.372,0,0,0,3.588,1.066c.969.161,1,.2,1.01,1.246.006.471.006.948.012,1.419.006.595.281.942.873.954.67.012,1.345.012,2.015-.006a.782.782,0,0,0,.831-.9c0-.645.03-1.295.006-1.939a1.018,1.018,0,0,1,.855-1.165,6.716,6.716,0,0,0,1.483-12.355Z" transform="translate(-1214 -2635)" fill="#fff"/>
</svg>
