<svg id="Component_3_1" data-name="Component 3 – 1" xmlns="http://www.w3.org/2000/svg" width="60" height="60" viewBox="0 0 60 60">
  <g id="Эллипс_1" data-name="Эллипс 1" fill="none" stroke="#fff" stroke-linecap="round" stroke-width="3" stroke-dasharray="0 6">
    <circle cx="30" cy="30" r="30" stroke="none"/>
    <circle cx="30" cy="30" r="28.5" fill="none"/>
  </g>
  <path id="Forma_1" data-name="Forma 1" d="M846.014,2503a1.063,1.063,0,0,1-1.033-1.09v-.8a1.063,1.063,0,0,1,1.033-1.09h1.442c.039-4.178,1.583-7.985,4.005-10.146-2.365-2.112-3.9-5.806-4.005-9.849h-1.442a1.063,1.063,0,0,1-1.033-1.09v-.842a1.063,1.063,0,0,1,1.033-1.09h19.93a1.064,1.064,0,0,1,1.034,1.09v.842a1.063,1.063,0,0,1-1.034,1.09H864.5c-.109,4.043-1.64,7.737-4,9.849,2.421,2.163,3.965,5.97,4.005,10.146h1.441a1.064,1.064,0,0,1,1.034,1.09v.8a1.064,1.064,0,0,1-1.034,1.09Zm7.776-14.258.385.194a1.06,1.06,0,0,1,0,1.856l-.385.205c-2.623,1.353-4.393,4.936-4.439,9.026h13.255c-.046-4.089-1.814-7.674-4.437-9.026l-.387-.21a1.056,1.056,0,0,1,0-1.849l.387-.2c2.557-1.319,4.308-4.8,4.436-8.713H849.353C849.48,2483.934,851.23,2487.42,853.79,2488.739ZM851.773,2499a4.5,4.5,0,0,1,8.969,0Zm.837-12.439h6.723a4.32,4.32,0,0,1-6.723,0Z" transform="translate(-826 -2460)" fill="#fff"/>
</svg>
